<?xml version="1.0" encoding="UTF-8"?>
<svg width="512px" height="512px" viewBox="0 0 512 512" version="1.1" xmlns="http://www.w3.org/2000/svg" xmlns:xlink="http://www.w3.org/1999/xlink">
    <!-- Generator: Sketch 47.1 (45422) - http://www.bohemiancoding.com/sketch -->
    <title>512 copy 4</title>
    <desc>Created with Sketch.</desc>
    <defs></defs>
    <g id="logo" stroke="none" stroke-width="1" fill="none" fill-rule="evenodd">
        <g id="512-copy-4">
            <g id="Group" transform="translate(30.000000, 40.000000)">
                <path d="M244.243394,90.6072576 L366.669529,90.6072576 C377.724458,90.6072576 386.678431,81.6573972 386.678431,70.6171849 L386.678431,20.14535 C386.678431,9.11723663 377.72014,0.155277307 366.669529,0.155277307 L20.0089028,0.155277307 C8.95397288,0.155277307 0,9.10513771 0,20.14535 L0,70.6171849 C0,81.6452983 8.95829092,90.6072576 20.0089028,90.6072576 L142.403941,90.6072576 L142.403941,412.560909 C142.403941,423.608203 151.357658,432.562127 162.402629,432.562127 L224.244705,432.562127 C235.295077,432.562127 244.243394,423.607276 244.243394,412.560909 L244.243394,90.6072576 Z" id="Combined-Shape" fill="#64B5F6"></path>
                <polygon id="Triangle-1" fill="#EF5350" points="320.356863 338.104941 320.356863 172.606849 452.593549 255.355895"></polygon>
            </g>
        </g>
    </g>
</svg>