<svg xmlns="http://www.w3.org/2000/svg" viewBox="0 0 150 24" enable-background="new 0 0 150 24"><g fill="#fff"><path d="m41.07 6.28c-.819-.348-1.944-.646-3.378-.646-3.505 0-6.04 2.135-6.04 6.157 0 3.674 2.226 6.03 6.01 6.03 1.279 0 2.61-.248 3.428-.621l.512 2.408c-.742.372-2.38.745-4.452.745-5.475 0-8.801-3.327-8.801-8.416 0-5.512 3.94-8.838 9.211-8.838 2.072 0 3.557.422 4.196.745l-.691 2.433m7.268 14.1c-3.531 0-6.243-2.359-6.243-6.232 0-3.972 2.687-6.405 6.448-6.405 3.71 0 6.192 2.532 6.192 6.207 0 4.444-3.224 6.43-6.397 6.43m.128-10.402c-2.226 0-3.122 2.085-3.122 4.096 0 2.334 1.177 4.096 3.096 4.096 1.791 0 3.045-1.713 3.045-4.146 0-1.886-.87-4.046-3.02-4.046m16.07 10.129l-.154-1.837h-.051c-.537.869-1.765 2.11-3.991 2.11-2.277 0-4.35-1.316-4.35-5.263v-7.101h3.147v6.579c0 2.01.666 3.302 2.328 3.302 1.254 0 2.072-.869 2.405-1.639.102-.273.179-.596.179-.943v-7.299h3.147v8.466c0 1.44.051 2.632.103 3.625h-2.763m10.849-9.508c-1.509 0-2.533.943-2.815 2.309-.051.273-.102.596-.102.943v6.256h-3.147v-8.193c0-1.639-.026-2.805-.103-3.898h2.738l.103 2.309h.102c.614-1.713 2.072-2.582 3.403-2.582.307 0 .486.025.742.074v2.88c-.256-.049-.537-.098-.921-.098m6.09-.671c-1.126 0-1.74.521-1.74 1.266 0 .77.589 1.142 2.175 1.688 2.252.794 3.3 1.912 3.326 3.699 0 2.185-1.765 3.774-5.066 3.774-1.509 0-2.866-.348-3.787-.844l.614-2.21c.716.422 2.072.869 3.198.869 1.382 0 1.996-.546 1.996-1.341 0-.819-.512-1.241-2.047-1.763-2.431-.819-3.454-2.11-3.429-3.525 0-2.135 1.817-3.799 4.708-3.799 1.382 0 2.584.348 3.3.72l-.614 2.16c-.536-.296-1.533-.694-2.634-.694m15.634 4.99h-8.341c.077 2.185 1.842 3.128 3.838 3.128 1.459 0 2.507-.199 3.454-.546l.46 2.11c-1.074.422-2.559.745-4.349.745-4.04 0-6.422-2.408-6.422-6.108 0-3.351 2.098-6.504 6.089-6.504 4.04 0 5.373 3.228 5.373 5.884 0 .571-.051 1.018-.102 1.291m-5.45-5.089c-1.945 0-2.763 1.713-2.891 2.955h5.476c.025-1.118-.487-2.955-2.585-2.955m21.391 10.278v-7.374h-7.292v7.374h-3.147v-16.733h3.147v6.703h7.292v-6.703h3.147v16.733h-3.147m15.917-5.189h-8.341c.077 2.185 1.842 3.128 3.838 3.128 1.458 0 2.507-.199 3.454-.546l.461 2.11c-1.075.422-2.559.745-4.35.745-4.04 0-6.422-2.408-6.422-6.108 0-3.351 2.098-6.504 6.089-6.504 4.04 0 5.373 3.228 5.373 5.884 0 .571-.051 1.018-.102 1.291m-5.45-5.089c-1.945 0-2.763 1.713-2.891 2.955h5.475c.026-1.118-.486-2.955-2.584-2.955m12.871.77c-1.51 0-2.533.943-2.814 2.309-.051.273-.103.596-.103.943v6.256h-3.147v-8.193c0-1.639-.026-2.805-.102-3.898h2.738l.102 2.309h.102c.614-1.713 2.072-2.582 3.403-2.582.307 0 .486.025.742.074v2.88c-.256-.049-.538-.098-.921-.098m7.216 9.781c-3.531 0-6.243-2.359-6.243-6.232 0-3.972 2.687-6.405 6.448-6.405 3.71 0 6.192 2.532 6.192 6.207-.001 4.444-3.225 6.43-6.397 6.43m.128-10.402c-2.226 0-3.122 2.085-3.122 4.096 0 2.334 1.177 4.096 3.096 4.096 1.791 0 3.045-1.713 3.045-4.146 0-1.886-.87-4.046-3.02-4.046"/><path d="m10.923 21.656c-12.389-3.483-11.162-14.807-10.6-19.656 2.02 0 19.619 0 21.2 0 .562 4.849 1.788 16.17-10.599 19.656m10.421-19.457c-1.553 0-18.857 0-20.842 0-.553 4.751-1.73 15.846 10.421 19.257 12.15-3.411 10.974-14.506 10.421-19.257m-10.421 18.393c-3.734-1.043-6.09-2.876-7.556-5.01.259 0 .521 0 .644 0-.233-.073-.415-.318-.455-.441.136-.067.23-.204.23-.365 0-.139-.07-.261-.177-.335v-2.263l1.517.864v-1.75c0 0 1.971-1.01 5.796-1.01 3.391 0 5.408 1.01 5.408 1.01l-.001 1.974 3.788-2.159-9.197-4.585-9.196 4.585 1.421.809v2.521c-.112.073-.186.198-.186.341 0 .165.099.306.241.37-.011.029-.03.065-.053.104-2.648-4.174-2.083-9.387-1.756-12.184 1.815 0 17.642 0 19.06 0 .506 4.324 1.583 14.422-9.53 17.528m4.858-8.893c0 0-1.755-.877-5-.877s-4.993.877-4.993.877v2.417h9.994v-2.417" fill-rule="evenodd"/></g></svg>