<?xml version="1.0" encoding="utf-8"?>
<!-- Generator: Adobe Illustrator 18.1.0, SVG Export Plug-In . SVG Version: 6.00 Build 0)  -->
<!DOCTYPE svg PUBLIC "-//W3C//DTD SVG 1.1//EN" "http://www.w3.org/Graphics/SVG/1.1/DTD/svg11.dtd">
<svg version="1.1" xmlns="http://www.w3.org/2000/svg" xmlns:xlink="http://www.w3.org/1999/xlink" x="0px" y="0px"
	 viewBox="0 0 710 500" enable-background="new 0 0 710 500" xml:space="preserve">
<g id="Background" display="none">
	<rect x="0" y="0" display="inline" fill="#282F3C" width="710" height="500"/>
</g>
<g id="Art">
	<g>
		<path fill="#FFFFFF" d="M137.6,280.6l14.5,47.2l5.6,18.7l3.8-19.3l9.4-46.5h3.9l-15.1,73.4h-3.2l-15.2-49.6l-5.4-18.1l-5.4,18.1
			l-15.2,49.6h-3.2l-15.1-73.4h3.9l9.4,46.5l3.8,19.3l5.6-18.7l14.5-47.2H137.6z"/>
		<path fill="#FFFFFF" d="M196.6,353h-3.7v-72.4h3.7V353z"/>
		<path fill="#FFFFFF" d="M222.6,349.7h40.9v3.3h-44.6v-72.4h3.7V349.7z"/>
		<path fill="#FFFFFF" d="M300.7,353h-23.9v-72.4h23.9c21.1,0,32.8,8,32.8,36.2C333.5,345,321.8,353,300.7,353z M301.8,349.7
			c19.6,0,27.9-7.8,27.9-32.9s-8.3-32.9-27.9-32.9h-21.2v65.7H301.8z"/>
		<path fill="#FFFFFF" d="M377.2,279.7c17.6,0,25,8,27.1,18.9l-3.9,0.6c-1.9-10.1-8.8-16.3-23.2-16.2c-18.9,0.3-26.7,12.6-26.7,33.8
			c0,21.2,7.9,33.5,26.7,33.8c14.4,0.2,21.4-6,23.2-16.2l3.9,0.6c-2.1,11-9.6,18.9-27.1,18.9c-21.4,0-30.6-14.4-30.6-37.1
			S355.8,279.7,377.2,279.7z"/>
		<path fill="#FFFFFF" d="M459.6,328.4h-33.1l-9.2,24.6h-4.1l27.9-73.4h3.9l27.9,73.4h-4.1L459.6,328.4z M435.2,305.4l-7.4,19.7
			h30.6l-7.3-19.7l-7.9-21.4L435.2,305.4z"/>
		<path fill="#FFFFFF" d="M516,320.7h-24.6V353h-3.7v-72.4h29.8c9.4,0,19.5,2.7,19.5,20.1c0,15.7-8.3,19.4-16.7,20l19.7,32.4h-4.6
			L516,320.7z M491.4,317.3h27.3c6.8,0,14.6-2.1,14.6-16.7c0-14.6-7.8-16.7-14.6-16.7h-27.3V317.3z"/>
		<path fill="#FFFFFF" d="M580.2,353h-23.9v-72.4h23.9c21.1,0,32.8,8,32.8,36.2C613,345,601.3,353,580.2,353z M581.3,349.7
			c19.6,0,27.9-7.8,27.9-32.9s-8.3-32.9-27.9-32.9h-21.2v65.7H581.3z"/>
	</g>
	<g>
		<path fill="#4CB4FF" d="M289.5,226.3c1.1,3.2,4.7,5.8,7.9,5.8h45.8c3.2,0,4.9-2.6,3.8-5.8l-28.3-73.1c-1.2-3.2-4.9-6.3-8.3-6.9
			l-47.2-7.7c-3.2,0-4.9,2.6-3.8,5.8L289.5,226.3z"/>
		<path fill="#F1BC3E" d="M386.4,200.7c0,3.2-2.6,5.7-5.8,5.6l-46.8-2.9c-3.2-0.1-5.8-2.7-5.8-6v-94.9c0-3.2,2.6-5.8,5.8-5.8
			l46.5,12.9c3.2,0.9,5.8,4.2,5.9,7.5L386.4,200.7z"/>
		<path fill="#FFFFFF" d="M421.3,226.3c-1.3,3.2-4.9,5.8-8.1,5.8h-42c-3.2,0-4.9-2.6-3.8-5.8l29.1-81.8c1.1-3.2,4.7-5.8,7.9-5.8
			l42.6,10c2.9,0.7,4.4,3.9,3.2,7.2L421.3,226.3z"/>
	</g>
</g>
</svg>
