<?xml version="1.0" encoding="utf-8"?>
<!-- Generator: Adobe Illustrator 15.0.0, SVG Export Plug-In . SVG Version: 6.00 Build 0)  -->
<!DOCTYPE svg PUBLIC "-//W3C//DTD SVG 1.1//EN" "http://www.w3.org/Graphics/SVG/1.1/DTD/svg11.dtd">
<svg version="1.1" id="Layer_1" xmlns="http://www.w3.org/2000/svg" xmlns:xlink="http://www.w3.org/1999/xlink" x="0px" y="0px"
	 width="121.279px" height="30px" viewBox="0 0 121.279 30" enable-background="new 0 0 121.279 30" xml:space="preserve">
<g>
	<g>
		<defs>
			<rect id="SVGID_1_" x="1.017" width="105.923" height="30"/>
		</defs>
		<clipPath id="SVGID_2_">
			<use xlink:href="#SVGID_1_"  overflow="visible"/>
		</clipPath>
		<path clip-path="url(#SVGID_2_)" fill="#8ACFF1" d="M6.629,3.028c0,1.555-1.26,2.814-2.814,2.814C2.26,5.843,1,4.583,1,3.028
			s1.26-2.814,2.815-2.814C5.369,0.214,6.629,1.474,6.629,3.028L6.629,3.028z"/>
		<path clip-path="url(#SVGID_2_)" fill="#8ACFF1" d="M6.629,11.58c0,1.554-1.26,2.814-2.814,2.814C2.26,14.394,1,13.134,1,11.58
			c0-1.555,1.26-2.815,2.815-2.815C5.369,8.765,6.629,10.025,6.629,11.58L6.629,11.58z"/>
		<path clip-path="url(#SVGID_2_)" fill="#8ACFF1" d="M6.629,19.275c0,1.555-1.26,2.814-2.814,2.814C2.26,22.09,1,20.83,1,19.275
			c0-1.554,1.26-2.814,2.815-2.814C5.369,16.461,6.629,17.722,6.629,19.275L6.629,19.275z"/>
	</g>
	<path fill="#29ABE2" d="M14.967,3.028c0,1.555-1.26,2.814-2.815,2.814c-1.554,0-2.814-1.26-2.814-2.814s1.26-2.814,2.814-2.814
		C13.706,0.214,14.967,1.474,14.967,3.028L14.967,3.028z"/>
	<path fill="#29ABE2" d="M14.967,11.58c0,1.554-1.26,2.814-2.815,2.814c-1.554,0-2.814-1.26-2.814-2.814
		c0-1.555,1.26-2.815,2.814-2.815C13.706,8.765,14.967,10.025,14.967,11.58L14.967,11.58z"/>
	<g>
		<defs>
			<rect id="SVGID_3_" x="1.017" width="105.923" height="30"/>
		</defs>
		<clipPath id="SVGID_4_">
			<use xlink:href="#SVGID_3_"  overflow="visible"/>
		</clipPath>
		<path clip-path="url(#SVGID_4_)" fill="#29ABE2" d="M14.967,19.275c0,1.555-1.26,2.814-2.815,2.814
			c-1.554,0-2.814-1.26-2.814-2.814c0-1.554,1.26-2.814,2.814-2.814C13.706,16.461,14.967,17.722,14.967,19.275L14.967,19.275z"/>
		<path clip-path="url(#SVGID_4_)" fill="#8ACFF1" d="M6.629,27.186C6.629,28.74,5.369,30,3.815,30C2.26,30,1,28.74,1,27.186
			s1.26-2.815,2.815-2.815C5.369,24.37,6.629,25.631,6.629,27.186L6.629,27.186z"/>
	</g>
	<path fill="#1C527F" d="M31.214,2.814c0,1.555-1.26,2.815-2.814,2.815c-1.555,0-2.815-1.26-2.815-2.815
		C25.584,1.26,26.844,0,28.399,0C29.953,0,31.214,1.26,31.214,2.814L31.214,2.814z"/>
	<path fill="#1C527F" d="M31.214,11.366c0,1.555-1.26,2.815-2.814,2.815c-1.555,0-2.815-1.26-2.815-2.815
		c0-1.554,1.26-2.814,2.815-2.814C29.953,8.551,31.214,9.812,31.214,11.366L31.214,11.366z"/>
	<path fill="#1C527F" d="M31.214,19.062c0,1.555-1.26,2.814-2.814,2.814c-1.555,0-2.815-1.26-2.815-2.814
		c0-1.554,1.26-2.814,2.815-2.814C29.953,16.247,31.214,17.508,31.214,19.062L31.214,19.062z"/>
	<path fill="#1C527F" d="M31.214,26.972c0,1.555-1.26,2.814-2.814,2.814c-1.555,0-2.815-1.26-2.815-2.814s1.26-2.814,2.815-2.814
		C29.953,24.157,31.214,25.417,31.214,26.972L31.214,26.972z"/>
	<path fill="#1C527F" d="M23.09,11.366c0,1.555-1.26,2.815-2.815,2.815c-1.554,0-2.814-1.26-2.814-2.815
		c0-1.554,1.26-2.814,2.814-2.814C21.83,8.551,23.09,9.812,23.09,11.366L23.09,11.366z"/>
	<path fill="#1C527F" d="M23.09,19.062c0,1.555-1.26,2.814-2.815,2.814c-1.554,0-2.814-1.26-2.814-2.814
		c0-1.554,1.26-2.814,2.814-2.814C21.83,16.247,23.09,17.508,23.09,19.062L23.09,19.062z"/>
	<path fill="#1C527F" d="M23.09,26.972c0,1.555-1.26,2.814-2.815,2.814c-1.554,0-2.814-1.26-2.814-2.814s1.26-2.814,2.814-2.814
		C21.83,24.157,23.09,25.417,23.09,26.972L23.09,26.972z"/>
	<path fill="#1C527F" d="M41.918,21.111c0-0.849-0.487-1.273-1.459-1.273h-0.626v2.542h0.695c0.449,0,0.793-0.107,1.032-0.321
		S41.918,21.529,41.918,21.111L41.918,21.111z M42.013,19.745c0.357,0.324,0.536,0.774,0.536,1.351s-0.173,1.033-0.52,1.369
		s-0.877,0.504-1.592,0.504h-1.231V19.26h1.273C41.145,19.26,41.656,19.422,42.013,19.745L42.013,19.745z"/>
	<polygon fill="#1C527F" points="46.264,19.26 46.89,19.26 46.89,22.969 46.264,22.969 46.264,19.26 	"/>
	<path fill="#1C527F" d="M52.955,21.547l-0.674-1.528l-0.674,1.528H52.955L52.955,21.547z M51.352,22.125l-0.371,0.844h-0.668
		l1.634-3.709h0.668l1.634,3.709h-0.668l-0.372-0.844H51.352L51.352,22.125z"/>
	<path fill="#1C527F" d="M60.24,21.164h0.627v1.269c-0.351,0.386-0.852,0.579-1.502,0.579c-0.549,0-1.008-0.182-1.377-0.542
		c-0.37-0.361-0.555-0.817-0.555-1.369s0.188-1.012,0.565-1.38c0.377-0.367,0.833-0.552,1.367-0.552
		c0.534,0,0.978,0.156,1.332,0.467l-0.334,0.479c-0.145-0.124-0.291-0.21-0.438-0.258s-0.317-0.072-0.512-0.072
		c-0.375,0-0.689,0.122-0.944,0.364c-0.254,0.242-0.382,0.561-0.382,0.955s0.124,0.711,0.372,0.949
		c0.248,0.239,0.548,0.358,0.899,0.358c0.352,0,0.646-0.075,0.883-0.228V21.164L60.24,21.164z"/>
	<polygon fill="#1C527F" points="67.378,19.26 68.004,19.26 68.004,22.969 67.325,22.969 65.223,20.263 65.223,22.969 
		64.597,22.969 64.597,19.26 65.223,19.26 67.378,22.029 67.378,19.26 	"/>
	<path fill="#1C527F" d="M74.587,20.135c-0.254-0.262-0.563-0.393-0.932-0.393s-0.679,0.131-0.932,0.393s-0.379,0.579-0.379,0.953
		c0,0.373,0.126,0.69,0.379,0.952s0.563,0.393,0.932,0.393s0.678-0.131,0.932-0.393c0.252-0.262,0.379-0.579,0.379-0.952
		C74.966,20.714,74.839,20.396,74.587,20.135L74.587,20.135z M75.046,22.457c-0.375,0.366-0.839,0.549-1.391,0.549
		s-1.016-0.183-1.391-0.549c-0.374-0.366-0.563-0.823-0.563-1.369c0-0.547,0.188-1.003,0.563-1.369
		c0.375-0.366,0.839-0.55,1.391-0.55s1.016,0.184,1.391,0.55s0.563,0.822,0.563,1.369C75.608,21.634,75.421,22.091,75.046,22.457
		L75.046,22.457z"/>
	<path fill="#1C527F" d="M80.428,19.748c-0.183,0-0.332,0.036-0.448,0.111c-0.117,0.074-0.176,0.187-0.176,0.337
		s0.059,0.266,0.176,0.345c0.116,0.08,0.365,0.165,0.745,0.257c0.381,0.093,0.667,0.222,0.86,0.388
		c0.192,0.167,0.289,0.411,0.289,0.735c0,0.323-0.122,0.586-0.366,0.788c-0.244,0.201-0.564,0.303-0.961,0.303
		c-0.58,0-1.095-0.2-1.544-0.601l0.393-0.472c0.375,0.325,0.765,0.488,1.168,0.488c0.201,0,0.361-0.044,0.48-0.13
		c0.117-0.087,0.177-0.202,0.177-0.346c0-0.143-0.055-0.255-0.167-0.334c-0.111-0.079-0.303-0.152-0.576-0.218
		c-0.271-0.065-0.479-0.125-0.62-0.181c-0.142-0.055-0.268-0.126-0.377-0.214c-0.219-0.167-0.329-0.422-0.329-0.765
		s0.125-0.607,0.374-0.793c0.25-0.187,0.559-0.279,0.926-0.279c0.237,0,0.473,0.039,0.706,0.117s0.436,0.188,0.604,0.329
		l-0.334,0.472c-0.109-0.099-0.258-0.181-0.445-0.244S80.611,19.748,80.428,19.748L80.428,19.748z"/>
	<polygon fill="#1C527F" points="86.958,19.833 86.958,22.969 86.332,22.969 86.332,19.833 85.207,19.833 85.207,19.26 
		88.083,19.26 88.083,19.833 86.958,19.833 	"/>
	<polygon fill="#1C527F" points="91.67,19.26 92.296,19.26 92.296,22.969 91.67,22.969 91.67,19.26 	"/>
	<path fill="#1C527F" d="M97.926,22.401c0.216,0,0.401-0.036,0.558-0.109c0.155-0.072,0.318-0.188,0.487-0.348l0.404,0.414
		c-0.394,0.436-0.87,0.653-1.431,0.653c-0.562,0-1.026-0.182-1.396-0.542c-0.37-0.361-0.555-0.817-0.555-1.369
		s0.188-1.012,0.564-1.38c0.378-0.367,0.853-0.552,1.429-0.552c0.574,0,1.055,0.213,1.44,0.638l-0.398,0.435
		c-0.177-0.17-0.344-0.288-0.501-0.355c-0.158-0.067-0.343-0.102-0.555-0.102c-0.375,0-0.69,0.122-0.944,0.364
		c-0.255,0.242-0.382,0.552-0.382,0.929s0.126,0.691,0.379,0.944S97.579,22.401,97.926,22.401L97.926,22.401z"/>
	<path fill="#1C527F" d="M104.168,19.748c-0.182,0-0.331,0.036-0.448,0.111c-0.116,0.074-0.175,0.187-0.175,0.337
		s0.059,0.266,0.175,0.345c0.117,0.08,0.365,0.165,0.746,0.257c0.38,0.093,0.667,0.222,0.859,0.388
		c0.193,0.167,0.289,0.411,0.289,0.735c0,0.323-0.122,0.586-0.365,0.788c-0.245,0.201-0.565,0.303-0.961,0.303
		c-0.58,0-1.095-0.2-1.545-0.601l0.393-0.472c0.376,0.325,0.765,0.488,1.168,0.488c0.201,0,0.361-0.044,0.48-0.13
		c0.118-0.087,0.178-0.202,0.178-0.346c0-0.143-0.056-0.255-0.167-0.334s-0.304-0.152-0.576-0.218s-0.479-0.125-0.621-0.181
		c-0.142-0.055-0.267-0.126-0.377-0.214c-0.219-0.167-0.328-0.422-0.328-0.765s0.125-0.607,0.374-0.793
		c0.249-0.187,0.558-0.279,0.926-0.279c0.237,0,0.473,0.039,0.706,0.117s0.435,0.188,0.604,0.329l-0.334,0.472
		c-0.11-0.099-0.258-0.181-0.445-0.244S104.35,19.748,104.168,19.748L104.168,19.748z"/>
	<path fill="#29ABE2" d="M40.453,12.327v4.005h-1.558V8.934h1.558v1.349c0.25-0.454,0.596-0.812,1.036-1.071
		c0.44-0.259,0.916-0.389,1.425-0.389c0.834,0,1.509,0.255,2.023,0.765s0.772,1.247,0.772,2.211v4.534h-1.558v-4.061
		c0-1.362-0.565-2.044-1.697-2.044c-0.538,0-1.006,0.179-1.404,0.536C40.653,11.119,40.453,11.641,40.453,12.327L40.453,12.327z"/>
	<path fill="#29ABE2" d="M52.316,13.579v-0.626h-1.752c-1.122,0-1.683,0.353-1.683,1.057c0,0.361,0.139,0.638,0.417,0.827
		c0.278,0.19,0.665,0.285,1.161,0.285c0.496,0,0.929-0.139,1.3-0.417C52.13,14.427,52.316,14.052,52.316,13.579L52.316,13.579z
		 M53.873,16.332h-1.418v-0.988c-0.612,0.733-1.433,1.099-2.461,1.099c-0.77,0-1.407-0.218-1.912-0.653
		c-0.506-0.436-0.758-1.018-0.758-1.746s0.269-1.272,0.806-1.634c0.538-0.361,1.266-0.542,2.184-0.542h2.017V11.59
		c0-0.982-0.547-1.474-1.641-1.474c-0.686,0-1.4,0.25-2.142,0.75l-0.695-0.974c0.899-0.714,1.919-1.07,3.059-1.07
		c0.872,0,1.583,0.22,2.135,0.661s0.828,1.133,0.828,2.079V16.332L53.873,16.332z"/>
	<path fill="#29ABE2" d="M57.6,12.327v4.005h-1.558V8.934H57.6v1.349c0.25-0.454,0.596-0.812,1.036-1.071
		c0.44-0.259,0.916-0.389,1.426-0.389c0.834,0,1.508,0.255,2.024,0.765c0.514,0.51,0.771,1.247,0.771,2.211v4.534H61.3v-4.061
		c0-1.362-0.566-2.044-1.697-2.044c-0.538,0-1.006,0.179-1.405,0.536C57.8,11.119,57.6,11.641,57.6,12.327L57.6,12.327z"/>
	<path fill="#29ABE2" d="M66.758,14.378c0.44,0.45,0.999,0.675,1.676,0.675s1.235-0.225,1.676-0.675
		c0.44-0.449,0.66-1.031,0.66-1.745c0-0.714-0.22-1.296-0.66-1.746s-0.999-0.675-1.676-0.675s-1.235,0.225-1.676,0.675
		s-0.661,1.031-0.661,1.746C66.096,13.347,66.317,13.929,66.758,14.378L66.758,14.378z M71.215,15.338
		c-0.742,0.736-1.669,1.105-2.781,1.105s-2.04-0.369-2.781-1.105c-0.742-0.737-1.113-1.639-1.113-2.705
		c0-1.066,0.371-1.968,1.113-2.705c0.741-0.737,1.669-1.105,2.781-1.105s2.039,0.368,2.781,1.105
		c0.741,0.737,1.112,1.639,1.112,2.705C72.327,13.699,71.956,14.601,71.215,15.338L71.215,15.338z"/>
	<polygon fill="#1C527F" points="78.154,16.332 76.318,16.332 72.41,6.611 74.246,6.611 77.236,13.871 80.226,6.611 82.061,6.611 
		78.154,16.332 	"/>
	<path fill="#1C527F" d="M84.788,16.332h-1.559V8.934h1.559V16.332L84.788,16.332z M83.327,7.459
		c-0.194-0.194-0.292-0.426-0.292-0.695c0-0.269,0.098-0.5,0.292-0.695c0.195-0.195,0.427-0.292,0.695-0.292
		c0.27,0,0.501,0.098,0.695,0.292c0.194,0.194,0.292,0.426,0.292,0.695c0,0.269-0.098,0.501-0.292,0.695
		c-0.194,0.195-0.426,0.292-0.695,0.292C83.754,7.752,83.522,7.654,83.327,7.459L83.327,7.459z"/>
	<path fill="#1C527F" d="M88.125,12.09h4.241c0-0.621-0.194-1.098-0.584-1.432c-0.39-0.333-0.869-0.5-1.439-0.5
		s-1.082,0.173-1.536,0.521C88.352,11.026,88.125,11.497,88.125,12.09L88.125,12.09z M93.924,13.314h-5.799
		c0.037,0.538,0.283,0.972,0.737,1.301s0.974,0.493,1.558,0.493c0.927,0,1.631-0.292,2.113-0.875l0.891,0.973
		c-0.798,0.826-1.836,1.238-3.116,1.238c-1.038,0-1.921-0.346-2.648-1.036c-0.729-0.691-1.092-1.618-1.092-2.782
		c0-1.163,0.37-2.088,1.112-2.774s1.615-1.029,2.622-1.029c1.005,0,1.86,0.304,2.565,0.911c0.704,0.607,1.057,1.444,1.057,2.51
		V13.314L93.924,13.314z"/>
	<polygon fill="#1C527F" points="99.097,16.332 97.317,16.332 94.758,8.934 96.372,8.934 98.207,14.524 100.043,8.934 
		101.656,8.934 103.491,14.524 105.327,8.934 106.94,8.934 104.382,16.332 102.601,16.332 100.849,11.27 99.097,16.332 	"/>
</g>
</svg>
