<svg id="Layer_1" data-name="Layer 1" xmlns="http://www.w3.org/2000/svg" viewBox="0 0 617.38 115.78"><defs><style>.cls-1{fill:#34a653;}.cls-2{fill:#1a1a1a;}</style></defs><title>Tellus-Labs-SVG-dark</title><path class="cls-1" d="M146.57,92.54H121.36V76.17L106,69.49l18.57-18.62.85.69a56.82,56.82,0,0,1,21,39.67Zm-22.78-2.42h20.13a54.37,54.37,0,0,0-19.14-36L110.27,68.69l13.52,5.89Z" transform="translate(-31.31 -38.5)"/><path class="cls-1" d="M50.91,105.22H32l-.15-1a53.39,53.39,0,0,1-.56-7.79,57.48,57.48,0,0,1,8.88-30.78l2.23-3.53V76l8.48,21.92ZM34.12,102.8H48.49V98.26L40,76.34V70.79A55.14,55.14,0,0,0,33.73,96.4,51.64,51.64,0,0,0,34.12,102.8Z" transform="translate(-31.31 -38.5)"/><path class="cls-1" d="M61.78,147.45,60,146.38a58.79,58.79,0,0,1-25.7-31.84l-.52-1.59H50.91v10H61.78ZM37.11,115.37a56.48,56.48,0,0,0,22.26,27.8v-17.8H48.49v-10Z" transform="translate(-31.31 -38.5)"/><path class="cls-1" d="M89,154.28a56.33,56.33,0,0,1-18.72-3.15l-.81-.28v-27.9H83.1v-12h18V153l-1,.2A55.88,55.88,0,0,1,89,154.28Zm-17.11-5.16A54.88,54.88,0,0,0,98.64,151V113.33H85.52v12H71.91Z" transform="translate(-31.31 -38.5)"/><path class="cls-1" d="M108.77,150.8V110.91h12.6V100.26h25.25l-.12,1.32a57.9,57.9,0,0,1-36.08,48.56Zm2.42-37.47V147.2A55.49,55.49,0,0,0,144,102.69H123.79v10.65Z" transform="translate(-31.31 -38.5)"/><path class="cls-1" d="M75.38,115.22H59.67V96.7L50.13,74.8V53.66l.4-.36A56.4,56.4,0,0,1,60,46.39l1.82-1.07v13.6L97.17,74.06l16.49,7.19v21.93H75.38ZM62.1,112.8H73v-12h38.28V82.84l-15-6.56L59.36,60.52V49.59a53.73,53.73,0,0,0-6.82,5.14v19.7L62.1,96.32Z" transform="translate(-31.31 -38.5)"/><path class="cls-1" d="M98.44,66.19,70,53.81V41.73l.82-.28A56.61,56.61,0,0,1,89,38.5a57.68,57.68,0,0,1,27.75,7.13l1.41.78Zm-26-14L97.89,63.31,114.17,47A55.27,55.27,0,0,0,89,40.92a54.26,54.26,0,0,0-16.54,2.55Z" transform="translate(-31.31 -38.5)"/><path class="cls-2" d="M181.72,57.7H192V74.32h15.49v8.05H192v33.35c0,4.34,3.1,5.88,8.36,5.88a41.66,41.66,0,0,0,7.12-.72v8.67a67.48,67.48,0,0,1-11.56.72c-10.12,0-14.25-5-14.25-12.8V82.37H170.57V74.32h11.15Z" transform="translate(-31.31 -38.5)"/><path class="cls-2" d="M223.94,104.47c.83,11.15,10.74,17.14,19.93,17.14,5.88,0,13.94-2,17.45-9.6h10.94c-5.16,13-17.24,18.27-27.87,18.27C223.32,130.28,213,117,213,101.37s10.32-28.91,31.39-28.91c14.25,0,29.32,8.26,29.32,30.66v1.34Zm38.82-8.05c-1.55-9.81-9.19-15.28-18.89-15.28-9.5,0-18.07,5.58-19.62,15.28Z" transform="translate(-31.31 -38.5)"/><path class="cls-2" d="M284.24,54.09h10.32v74.33H284.24Z" transform="translate(-31.31 -38.5)"/><path class="cls-2" d="M307.16,54.09h10.32v74.33H307.16Z" transform="translate(-31.31 -38.5)"/><path class="cls-2" d="M384.49,128.42H374.16v-8.16H374c-4.85,7.54-13.42,10-21.16,10-13,0-22.71-5.58-22.71-19.1V74.32H340.4v34.79c0,8,5,12.49,16,12.49,9.39,0,17.76-5.47,17.76-16.1V74.32h10.32Z" transform="translate(-31.31 -38.5)"/><path class="cls-2" d="M404.31,111.38c0,4.85,3.92,10.84,17,10.84,13.32,0,16.52-4.65,16.52-8.47s-2-6.09-10.22-7.23l-17-2.27c-7.74-1-14.66-6-14.66-14.35,0-10.94,9.5-17.45,24.67-17.45,17.76,0,25.5,7.64,26.43,18.17H436.73c-.31-5.47-5.47-10.12-16.21-10.12-6.61,0-14.25,1.86-14.25,8.26,0,3.61,1.65,5.68,9,6.71l14.66,2c13.63,1.86,18.89,6.71,18.89,14.35,0,12.59-10.63,18.48-27.15,18.48-12.39,0-26.53-3.2-27.67-18.89Z" transform="translate(-31.31 -38.5)"/><path class="cls-2" d="M458.2,54.71H463v73.71H458.2Z" transform="translate(-31.31 -38.5)"/><path class="cls-2" d="M474.2,91.87c1.76-13.32,8.57-18,24.57-18,15.38,0,24.26,3.61,24.26,15.49V119c0,3.92,0,6.3,3.51,6.3a14.7,14.7,0,0,0,4.65-.83v4.13a17.61,17.61,0,0,1-5.78.83c-6.5,0-6.5-4.54-6.5-11.56h-.21c-5.88,10.84-18.27,12.18-25.19,12.18-4.54,0-21.68,0-21.68-16.11,0-10.84,9.19-14.56,19.93-15.18l18.48-1.24c5.47-.41,8.05-1,8.05-7.54,0-7.12-4-12-19.62-12C484.74,78,480.4,82.37,479,91.87Zm44.08,7h-.21c-1.14,1.24-3.92,2.48-8.47,2.79l-17.86,1.24c-8.88.62-15.18,3.1-15.18,11,0,10.74,10.84,12,17.24,12,10.53,0,24.47-4.75,24.47-17.34Z" transform="translate(-31.31 -38.5)"/><path class="cls-2" d="M536.15,54.71h4.75V86.81h.21c3.1-5.78,10.43-12.9,23.44-12.9,16.11,0,28.18,11.15,28.18,28,0,15-9.6,28.18-28.18,28.18-13.63,0-21-6.92-23.44-13.21h-.21v11.56h-4.75ZM588,101.78C588,85.68,576.62,78,564.44,78c-10.74,0-24.16,5.88-24.16,24.47,0,9.4,5,23.44,24.78,23.44C578.17,125.94,588,117,588,101.78Z" transform="translate(-31.31 -38.5)"/><path class="cls-2" d="M641.87,91c-.72-8.78-6.3-13-20-13-13,0-17.24,5.06-17.24,10.53,0,5.78,4.34,8.16,10.63,9l16.83,2.27c9.91,1.34,16.62,5,16.62,14.45,0,14.35-16.31,15.8-25.29,15.8-14.56,0-25.09-5-25.81-18.17h4.75c.62,5.47,1.75,14,22.3,14,13.94,0,19.31-4.13,19.31-11.67,0-6.09-4.44-8.78-10.63-9.6l-18.58-2.48c-6.5-.83-14.87-3.92-14.87-13.32,0-6,4.23-15,22.2-15,19.62,0,24,8.88,24.57,17.14Z" transform="translate(-31.31 -38.5)"/></svg>